<svg xmlns="http://www.w3.org/2000/svg" xmlns:svg="http://www.w3.org/2000/svg" id="svg3719" width="85.034" height="80.562" version="1.1" viewBox="0 0 22.499 21.315"><metadata id="metadata3716"/><g id="layer1" transform="translate(-9.3505358,-250.45875)"><path style="fill:none;stroke:#000;stroke-width:.465;stroke-linecap:butt;stroke-linejoin:miter;stroke-miterlimit:4;stroke-dasharray:none;stroke-opacity:1" id="path3723" d="m 10.583333,252.02083 0.0084,15.87319 c 0,0 0,2.64584 2.673972,2.62255 1.870229,-0.0163 3.940612,0.0233 3.940612,0.0233 0,0 2.679079,0.0203 2.64567,-2.63566 -0.02732,-2.17166 -0.0082,-15.88337 -0.0082,-15.88337 l -2.645833,2.64583 h -3.96875 z"/><path style="fill:none;stroke:#000;stroke-width:.26458332px;stroke-linecap:butt;stroke-linejoin:miter;stroke-opacity:1" id="path3727" d="m 11.377083,257.3125 h 1.5875 v 0"/><path style="fill:none;stroke:#000;stroke-width:.26458332px;stroke-linecap:butt;stroke-linejoin:miter;stroke-opacity:1" id="path3729" d="m 11.377083,258.10625 c 1.322917,0 1.5875,0 1.5875,0"/><path style="fill:none;stroke:#000;stroke-width:.26458332px;stroke-linecap:butt;stroke-linejoin:miter;stroke-opacity:1" id="path3731" d="m 11.377083,258.9 c 1.322917,0 1.5875,0 1.5875,0"/><path style="fill:none;stroke:#000;stroke-width:.26458332px;stroke-linecap:butt;stroke-linejoin:miter;stroke-opacity:1" id="path3727-6" d="M 17.4625,257.3125 H 19.05 v 0"/><path style="fill:none;stroke:#000;stroke-width:.26458332px;stroke-linecap:butt;stroke-linejoin:miter;stroke-opacity:1" id="path3729-9" d="m 17.4625,258.10625 c 1.322917,0 1.5875,0 1.5875,0"/><path style="fill:none;stroke:#000;stroke-width:.26458332px;stroke-linecap:butt;stroke-linejoin:miter;stroke-opacity:1" id="path3731-1" d="m 17.4625,258.9 c 1.322917,0 1.5875,0 1.5875,0"/><path style="fill:none;stroke:#000;stroke-width:.26458332px;stroke-linecap:butt;stroke-linejoin:miter;stroke-opacity:1" id="path3756" d="m 13.758333,258.10625 c 0,0 0.529167,1.32292 1.463477,0.0148 0.0086,-0.012 -7.8e-5,-0.007 0.008,0.005 0.887377,1.30872 1.43894,-0.0198 1.43894,-0.0198"/><circle id="path3758" cx="15.21" cy="257.871" r=".265" style="stroke-width:.26458332"/><circle id="path3763" cx="14.222" cy="256.459" r=".397" style="stroke-width:.26458332"/><circle id="path3765" cx="16.305" cy="256.459" r=".397" style="stroke-width:.26458332"/><path style="fill:none;stroke:#000;stroke-width:.465;stroke-linecap:butt;stroke-linejoin:miter;stroke-miterlimit:4;stroke-dasharray:none;stroke-opacity:1" id="path3767" d="m 26.9875,254.66666 h -4.497917 l 0.04725,8.06035 c 0,0 8.154834,-4.0916 8.079241,3.68055 -0.04021,4.1346 -4.157738,4.1341 -4.157738,4.1341 H 15.875003 v 0"/><path style="fill:none;stroke:#000;stroke-width:.36500001;stroke-linecap:butt;stroke-linejoin:miter;stroke-miterlimit:4;stroke-dasharray:none;stroke-opacity:1" id="path3769" d="m 26.458333,253.87291 c 0,0.79375 0,1.5875 0,1.5875"/><path style="fill:none;stroke:#000;stroke-width:.36500001;stroke-linecap:butt;stroke-linejoin:miter;stroke-miterlimit:4;stroke-dasharray:none;stroke-opacity:1" id="path3771" d="m 25.929166,254.1375 1e-6,1.05833"/><path style="fill:none;stroke:#000;stroke-width:.26458332px;stroke-linecap:butt;stroke-linejoin:miter;stroke-opacity:1" id="path3773" d="m 25.4,254.40208 c 0,0.52917 0,0.52917 0,0.52917"/><path style="fill:#000;fill-opacity:1;stroke:#000;stroke-width:.26458332px;stroke-linecap:butt;stroke-linejoin:miter;stroke-opacity:1" id="path3779" d="m 26.9875,253.60833 v 2.11667 h 1.852083 v -0.52917 c 0,0 -1.322917,0 -1.322917,-0.52917 0,-0.52916 1.322917,-0.52916 1.322917,-0.52916 v -0.52917 z"/><path style="fill:none;stroke:#000;stroke-width:.26458332px;stroke-linecap:butt;stroke-linejoin:miter;stroke-opacity:1" id="path3781" d="m 28.839583,253.87291 h 1.5875 v 1.5875 h -1.5875"/><path style="fill:none;stroke:#000;stroke-width:.12247442;stroke-linecap:butt;stroke-linejoin:miter;stroke-miterlimit:4;stroke-dasharray:none;stroke-opacity:1" id="path3785" d="m 30.427083,255.07172 h -0.79375"/><path style="fill:none;stroke:#000;stroke-width:.12247442;stroke-linecap:butt;stroke-linejoin:miter;stroke-miterlimit:4;stroke-dasharray:none;stroke-opacity:1" id="path3787" d="m 30.427083,254.80714 h -0.79375"/><path style="fill:none;stroke:#000;stroke-width:.12247442;stroke-linecap:butt;stroke-linejoin:miter;stroke-miterlimit:4;stroke-dasharray:none;stroke-opacity:1" id="path3789" d="m 30.427083,254.54255 h -0.79375"/><path style="fill:none;stroke:#000;stroke-width:.12247442;stroke-linecap:butt;stroke-linejoin:miter;stroke-miterlimit:4;stroke-dasharray:none;stroke-opacity:1" id="path3791" d="m 30.427083,254.27797 h -0.79375"/></g></svg>